<?xml version="1.0" encoding="UTF-8" standalone="no"?>
<!DOCTYPE svg PUBLIC "-//W3C//DTD SVG 1.1//EN" "http://www.w3.org/Graphics/SVG/1.1/DTD/svg11.dtd">
<svg version="1.1" xmlns="http://www.w3.org/2000/svg" xmlns:xlink="http://www.w3.org/1999/xlink" preserveAspectRatio="xMidYMid meet" viewBox="0 0 32 32" width="32" height="32"><defs><path d="M24.77 8.3C25.13 8.66 25.13 9.25 24.77 9.61C21.51 12.88 12.38 22 9.12 25.27C8.75 25.63 8.16 25.63 7.8 25.27C7.51 24.97 7.29 24.76 7 24.46C6.63 24.1 6.63 23.51 7 23.15C10.26 19.88 19.39 10.75 22.65 7.49C23.01 7.13 23.6 7.13 23.97 7.49C24.26 7.78 24.48 8 24.77 8.3Z" id="e445O8anEr"></path><path d="M7.8 7.49C8.16 7.13 8.75 7.13 9.12 7.49C12.38 10.75 21.51 19.88 24.77 23.15C25.13 23.51 25.13 24.1 24.77 24.46C24.48 24.76 24.26 24.97 23.97 25.27C23.6 25.63 23.01 25.63 22.65 25.27C19.39 22 10.26 12.88 7 9.61C6.63 9.25 6.63 8.66 7 8.3C7.29 8 7.51 7.78 7.8 7.49Z" id="a29DNOCNPt"></path></defs><g><g><g><use xlink:href="#e445O8anEr" opacity="1" fill="#000000" fill-opacity="1"></use></g><g><use xlink:href="#a29DNOCNPt" opacity="1" fill="#000000" fill-opacity="1"></use></g></g></g></svg>