<?xml version="1.0" encoding="UTF-8" standalone="no"?>
<!DOCTYPE svg PUBLIC "-//W3C//DTD SVG 1.1//EN" "http://www.w3.org/Graphics/SVG/1.1/DTD/svg11.dtd">
<svg version="1.1" xmlns="http://www.w3.org/2000/svg" xmlns:xlink="http://www.w3.org/1999/xlink" preserveAspectRatio="xMidYMid meet" viewBox="0 0 32 32" width="32" height="32"><defs><path d="M4 16.57C4 17.08 4.42 17.5 4.93 17.5C9.55 17.5 22.45 17.5 27.07 17.5C27.58 17.5 28 17.08 28 16.57C28 16.16 28 15.85 28 15.43C28 14.92 27.58 14.5 27.07 14.5C22.45 14.5 9.55 14.5 4.93 14.5C4.42 14.5 4 14.92 4 15.43C4 15.85 4 16.16 4 16.57Z" id="a3OAENRiX"></path><path d="M28 10.07C28 10.58 27.58 11 27.07 11C22.45 11 9.54 11 4.93 11C4.41 11 4 10.58 4 10.07C4 9.65 4 9.34 4 8.93C4 8.42 4.41 8 4.93 8C9.54 8 22.45 8 27.07 8C27.58 8 28 8.42 28 8.93C28 9.34 28 9.65 28 10.07Z" id="b4mjjm2Tyn"></path><path d="M4 23.07C4 23.59 4.42 24 4.93 24C9.55 24 22.45 24 27.07 24C27.58 24 28 23.59 28 23.07C28 22.66 28 22.35 28 21.93C28 21.42 27.58 21 27.07 21C22.45 21 9.55 21 4.93 21C4.42 21 4 21.42 4 21.93C4 22.35 4 22.66 4 23.07Z" id="a1v8XGqhip"></path></defs><g><g><g><use xlink:href="#a3OAENRiX" opacity="1" fill="#000000" fill-opacity="1"></use></g><g><use xlink:href="#b4mjjm2Tyn" opacity="1" fill="#000000" fill-opacity="1"></use></g><g><use xlink:href="#a1v8XGqhip" opacity="1" fill="#000000" fill-opacity="1"></use></g></g></g></svg>