<svg xmlns="http://www.w3.org/2000/svg" viewBox="0 0 992 32" width="992" height="32"><path d="M4 16.57c0 .51.42.93.93.93h22.14c.51 0 .93-.42.93-.93v-1.14c0-.51-.42-.93-.93-.93H4.93c-.51 0-.93.42-.93.93v1.14zM4 8.93c0-.51.41-.93.93-.93h22.14c.51 0 .93.42.93.93v1.14c0 .51-.42.93-.93.93H4.93c-.52 0-.93-.42-.93-.93V8.93M4 23.07c0 .52.42.93.93.93h22.14c.51 0 .93-.41.93-.93v-1.14c0-.51-.42-.93-.93-.93H4.93c-.51 0-.93.42-.93.93v1.14zM36 16.57c0 .51.42.93.93.93h22.14c.51 0 .93-.42.93-.93v-1.14c0-.51-.42-.93-.93-.93H36.93c-.51 0-.93.42-.93.93v1.14zM36 9.779c0-.397.411-.723.93-.723h22.14c.51 0 .93.326.93.723v.887c0-.057-.047-.104-.103-.104-.82.454-2.014.827-3.287.827-6.617 0-13.223.047-19.783.103-.463.042-.827-.289-.827-.7V9.779M36 22.348c0 .519.42.93.93.93h22.14c.51 0 .93-.411.93-.93v-1.14c0-.51-.42-.93-.93-.93H36.93c-.51 0-.93.42-.93.93v1.14zM68 16.57c0 .51.42.93.93.93h22.14c.51 0 .93-.42.93-.93v-1.14c0-.51-.42-.93-.93-.93H68.93c-.51 0-.93.42-.93.93v1.14zM68 10.628c0-.284.412-.517.93-.517h22.14c.51 0 .93.233.93.517v.633c0-.113-.093-.207-.207-.207-1.64.397-3.606.724-5.643.724-5.853 0-11.687.093-17.427.206-.404.085-.723-.157-.723-.47v-.886M68 21.626c0 .517.42.93.93.93h22.14c.51 0 .93-.413.93-.93v-1.14c0-.51-.42-.93-.93-.93H68.93c-.51 0-.93.42-.93.93v1.14zM100 16.57c0 .51.42.93.93.93h22.14c.51 0 .93-.42.93-.93v-1.14c0-.51-.42-.93-.93-.93h-22.14c-.51 0-.93.42-.93.93v1.14zM100 11.477c0-.17.413-.31.93-.31h22.14c.51 0 .93.14.93.31v.38c0-.17-.14-.31-.31-.31-2.46.34-5.2.62-8 .62-5.09 0-10.15.14-15.07.31-.347.126-.62-.027-.62-.24v-.76M100 20.903c0 .517.42.93.93.93h22.14c.51 0 .93-.413.93-.93v-1.14c0-.51-.42-.93-.93-.93h-22.14c-.51 0-.93.42-.93.93v1.14zM132 16.57c0 .51.42.93.93.93h22.14c.51 0 .93-.42.93-.93v-1.14c0-.51-.42-.93-.93-.93h-22.14c-.51 0-.93.42-.93.93v1.14zM132 12.326c0-.057.414-.104.93-.104h22.14c.51 0 .93.047.93.104v.126c0-.226-.187-.413-.413-.413-3.28.283-6.794.517-10.357.517-4.327 0-8.613.186-12.713.413-.289.169-.517.104-.517-.01v-.633M132 20.181c0 .516.42.93.93.93h22.14c.51 0 .93-.414.93-.93v-1.14c0-.51-.42-.93-.93-.93h-22.14c-.51 0-.93.42-.93.93v1.14z" fill="#000000"/><path d="M164 16.57c0 .51.42.93.93.93h22.14c.51 0 .93-.42.93-.93v-1.14c0-.51-.42-.93-.93-.93h-22.14c-.51 0-.93.42-.93.93v1.14z" fill="#000000" fill-opacity=".949379"/><path d="M164 13.174c0 .057.416.104.93.104h22.14c.51 0 .93-.047.93-.104v-.126c0-.284-.233-.517-.517-.517-4.1.227-8.386.413-12.713.413-3.563 0-7.077.234-10.357.517-.231.211-.413.236-.413.22v-.507M164 19.459c0 .514.42.93.93.93h22.14c.51 0 .93-.416.93-.93v-1.14c0-.51-.42-.93-.93-.93h-22.14c-.51 0-.93.42-.93.93v1.14z" fill="#000000"/><path d="M196 16.57c0 .51.42.93.93.93h22.14c.51 0 .93-.42.93-.93v-1.14c0-.51-.42-.93-.93-.93h-22.14c-.51 0-.93.42-.93.93v1.14z" fill="#000000" fill-opacity=".853868"/><path d="M196 14.023c0 .17.417.31.93.31h22.14c.51 0 .93-.14.93-.31v-.38c0-.34-.28-.62-.62-.62-4.92.17-9.98.31-15.07.31-2.8 0-5.54.28-8 .62-.173.254-.31.367-.31.45v-.38M196 18.737c0 .513.42.93.93.93h22.14c.51 0 .93-.417.93-.93v-1.14c0-.51-.42-.93-.93-.93h-22.14c-.51 0-.93.42-.93.93v1.14z" fill="#000000"/><path d="M228 16.57c0 .51.42.93.93.93h22.14c.51 0 .93-.42.93-.93v-1.14c0-.51-.42-.93-.93-.93h-22.14c-.51 0-.93.42-.93.93v1.14z" fill="#000000" fill-opacity=".758357"/><path d="M228 14.872c0 .284.418.517.93.517h22.14c.51 0 .93-.233.93-.517v-.633c0-.397-.327-.723-.723-.723-5.74.113-11.574.206-17.427.206-2.037 0-4.003.327-5.643.724-.116.295-.207.497-.207.68v-.254M228 18.014c0 .513.42.93.93.93h22.14c.51 0 .93-.417.93-.93v-1.14c0-.51-.42-.93-.93-.93h-22.14c-.51 0-.93.42-.93.93v1.14z" fill="#000000"/><path d="M260 16.57c0 .51.42.93.93.93h22.14c.51 0 .93-.42.93-.93v-1.14c0-.51-.42-.93-.93-.93h-22.14c-.51 0-.93.42-.93.93v1.14z" fill="#000000" fill-opacity=".662846"/><path d="M260 15.721c0 .397.419.723.93.723h22.14c.51 0 .93-.326.93-.723v-.887c0-.453-.373-.826-.827-.826-6.56.056-13.166.103-19.783.103-1.273 0-2.467.373-3.287.827-.057.338-.103.629-.103.91v-.127" fill="#000000"/><path d="M260 17.292c0 .511.42.93.93.93h22.14c.51 0 .93-.419.93-.93v-1.14c0-.51-.42-.93-.93-.93h-22.14c-.51 0-.93.42-.93.93v1.14z" fill="#000000"/><path d="M292 16.57c0 .51.42.93.93.93h22.14c.51 0 .93-.42.93-.93v-1.14c0-.51-.42-.93-.93-.93h-22.14c-.51 0-.93.42-.93.93v1.14z" fill="#000000" fill-opacity=".567335"/><path d="M292 15.43c0-.51.42-.93.93-.93h22.14c.51 0 .93.42.93.93v1.14c0 .51-.42.93-.93.93h-22.14c-.51 0-.93-.42-.93-.93v-1.14" fill="#000000"/><path d="M316 16.57v-1.14c0-.51-.42-.93-.93-.93h-22.14c-.51 0-.93.42-.93.93v1.14c0 .51.42.93.93.93h22.14c.51 0 .93-.42.93-.93" fill="#000000"/><path d="M324 16.57c0 .51.42.93.93.93h22.14c.51 0 .93-.42.93-.93v-1.14c0-.51-.42-.93-.93-.93h-22.14c-.51 0-.93.42-.93.93v1.14z" fill="#000000" fill-opacity=".471824"/><path d="M323.648 16.165c-.033-.524.371-.983.894-1.016 7.762-.302 14.979-1.147 22.741-1.45.524-.033.983.371 1.016.895.027.387.047.783.074 1.17.034.524-.37.983-.894 1.017-7.761.302-14.979 1.147-22.741 1.45-.523.033-.982-.371-1.016-.895-.027.028-.047.048-.074.075v-1.246" fill="#000000"/><path d="M348.299 17.336V16.09c.027-.529-.412-.968-.942-.941-8.029.033-16.038.033-24.068 0-.255-.302.131-.688.433-.434.034.382.034.743 0 1.124-.027-.027-.047-.047-.074-.075-.033.524.371.983.894 1.017 7.762.302 14.979 1.147 22.741 1.45.524.033.983-.371 1.016-.895" fill="#000000"/><g><path d="M356 16.57c0 .51.42.93.93.93h22.14c.51 0 .93-.42.93-.93v-1.14c0-.51-.42-.93-.93-.93h-22.14c-.51 0-.93.42-.93.93v1.14z" fill="#000000" fill-opacity=".376313"/><path d="M355.719 16.018c-.027-.521.38-.972.901-.999 7.685-.241 14.935-.918 22.62-1.16.521-.026.973.381.999.902.022.386.038.779.06 1.165.027.521-.38.972-.902.998-7.685.243-14.935.918-22.62 1.16-.521.027-.972-.38-.999-.901-.022.022-.038.038-.059.06v-1.225" fill="#000000"/><path d="M380.239 17.183v-1.225c.022-.525-.413-.96-.939-.939-7.9.027-15.783.027-23.683 0-.306-.241-.081-.466.161-.161.027.382.027.746 0 1.128-.022-.023-.038-.038-.059-.06-.027.521.38.972.901.998 7.685.243 14.935.918 22.62 1.16.521.027.973-.38.999-.901" fill="#000000"/></g><g><path d="M388 16.57c0 .51.42.93.93.93h22.14c.51 0 .93-.42.93-.93v-1.14c0-.51-.42-.93-.93-.93h-22.14c-.51 0-.93.42-.93.93v1.14z" fill="#000000" fill-opacity=".280802"/><path d="M389.9 11.46c.18-.435.685-.645 1.125-.465 5.32 1.63 13.575 6.195 18.895 7.83.435.18.645.685.465 1.12-.145.34-.255.635-.4.975-.185.435-.69.645-1.125.465-5.32-1.635-13.575-6.195-18.895-7.83-.44-.18-.65-.685-.465-1.12.145-.15.255-.26.4-.405v-.57" fill="#000000"/><path d="M410.385 12.435v-.57c-.145-.405-.465-.725-.865-.87-3.875-.18-7.86-.18-11.73 0-1.885 1.63-6.66 6.405-8.29 8.295-.185.37-.185.855 0 1.225.145.15.255.255.4.405.18.435.685.645 1.125.465 5.32-1.635 13.575-6.195 18.895-7.83.435-.18.645-.685.465-1.12" fill="#000000"/></g><g><path d="M420 16.57c0 .51.42.93.93.93h22.14c.51 0 .93-.42.93-.93v-1.14c0-.51-.42-.93-.93-.93h-22.14c-.51 0-.93.42-.93.93v1.14z" fill="#000000" fill-opacity=".185291"/><path d="M424.081 6.902c.387-.349.99-.318 1.349.069 2.955 3.501 12.215 13.308 15.17 16.82.349.386.317.989-.069 1.338-.312.294-.548.491-.86.785-.397.349-1 .318-1.348-.068-2.955-3.513-12.215-13.308-15.17-16.82-.359-.387-.328-.99.069-1.339.312-.322.548-.558.859-.87v.085" fill="#000000"/><path d="M440.531 7.687v.085c-.312-.285-.517-.49-.791-.801.15-.387.063-.387.223 0-3.464 3.501-13.239 13.276-16.741 16.751-.397.358-.397.964 0 1.322.312.323.548.548.859.87.387.349.99.318 1.349-.068 2.955-3.513 12.215-13.308 15.17-16.82.349-.387.317-.99-.069-1.339" fill="#000000"/></g><g><path d="M452 16.57c0 .51.42.93.93.93h22.14c.51 0 .93-.42.93-.93v-1.14c0-.51-.42-.93-.93-.93h-22.14c-.51 0-.93.42-.93.93v1.14z" fill="#000000" fill-opacity=".08978"/><path d="M456.152 6.755c.393-.346.999-.307 1.356.086 2.878 3.562 12.171 13.537 15.049 17.11.346.393.307.999-.086 1.345-.317.293-.557.487-.874.78-.404.346-1.01.307-1.356-.087-2.879-3.572-12.171-13.537-15.049-17.11-.357-.393-.318-.999.086-1.345.317-.328.557-.568.874-.885v.106" fill="#000000"/><path d="M472.471 7.534v.106c-.317-.281-.518-.482-.788-.799.279-.393.318-.393.608 0-3.515 3.562-13.451 13.498-17.013 17.024-.404.358-.404.967 0 1.326.317.327.557.557.874.885.393.346.999.307 1.356-.087 2.878-3.572 12.171-13.537 15.049-17.11.346-.393.307-.999-.086-1.345" fill="#000000"/></g><g><path d="M487.8 7.49c.36-.36.95-.36 1.32 0 3.26 3.26 12.39 12.39 15.65 15.66.36.36.36.95 0 1.31-.29.3-.51.51-.8.81-.37.36-.96.36-1.32 0C499.39 22 490.26 12.88 487 9.61c-.37-.36-.37-.95 0-1.31.29-.3.51-.52.8-.81" fill="#000000"/><path d="M504.77 8.3c-.29-.3-.51-.52-.8-.81-.37-.36-.96-.36-1.32 0-3.26 3.26-12.39 12.39-15.65 15.66-.37.36-.37.95 0 1.31.29.3.51.51.8.81.36.36.95.36 1.32 0 3.26-3.27 12.39-12.39 15.65-15.66.36-.36.36-.95 0-1.31" fill="#000000"/></g><g><path d="M519.8 7.49c.36-.36.95-.36 1.32 0 3.26 3.26 12.39 12.39 15.65 15.66.36.36.36.95 0 1.31-.29.3-.51.51-.8.81-.37.36-.96.36-1.32 0C531.39 22 522.26 12.88 519 9.61c-.37-.36-.37-.95 0-1.31.29-.3.51-.52.8-.81" fill="#000000"/><path d="M536.77 8.3c-.29-.3-.51-.52-.8-.81-.37-.36-.96-.36-1.32 0-3.26 3.26-12.39 12.39-15.65 15.66-.37.36-.37.95 0 1.31.29.3.51.51.8.81.36.36.95.36 1.32 0 3.26-3.27 12.39-12.39 15.65-15.66.36-.36.36-.95 0-1.31" fill="#000000"/></g><g><path d="M551.8 7.49c.36-.36.95-.36 1.32 0 3.26 3.26 12.39 12.39 15.65 15.66.36.36.36.95 0 1.31-.29.3-.51.51-.8.81-.37.36-.96.36-1.32 0C563.39 22 554.26 12.88 551 9.61c-.37-.36-.37-.95 0-1.31.29-.3.51-.52.8-.81" fill="#000000"/><path d="M568.77 8.3c-.29-.3-.51-.52-.8-.81-.37-.36-.96-.36-1.32 0-3.26 3.26-12.39 12.39-15.65 15.66-.37.36-.37.95 0 1.31.29.3.51.51.8.81.36.36.95.36 1.32 0 3.26-3.27 12.39-12.39 15.65-15.66.36-.36.36-.95 0-1.31" fill="#000000"/></g><g><path d="M583.8 7.49c.36-.36.95-.36 1.32 0 3.26 3.26 12.39 12.39 15.65 15.66.36.36.36.95 0 1.31-.29.3-.51.51-.8.81-.37.36-.96.36-1.32 0C595.39 22 586.26 12.88 583 9.61c-.37-.36-.37-.95 0-1.31.29-.3.51-.52.8-.81" fill="#000000"/><path d="M600.77 8.3c-.29-.3-.51-.52-.8-.81-.37-.36-.96-.36-1.32 0-3.26 3.26-12.39 12.39-15.65 15.66-.37.36-.37.95 0 1.31.29.3.51.51.8.81.36.36.95.36 1.32 0 3.26-3.27 12.39-12.39 15.65-15.66.36-.36.36-.95 0-1.31" fill="#000000"/></g><g><path d="M615.8 7.49c.36-.36.95-.36 1.32 0 3.26 3.26 12.39 12.39 15.65 15.66.36.36.36.95 0 1.31-.29.3-.51.51-.8.81-.37.36-.96.36-1.32 0C627.39 22 618.26 12.88 615 9.61c-.37-.36-.37-.95 0-1.31.29-.3.51-.52.8-.81" fill="#000000"/><path d="M632.77 8.3c-.29-.3-.51-.52-.8-.81-.37-.36-.96-.36-1.32 0-3.26 3.26-12.39 12.39-15.65 15.66-.37.36-.37.95 0 1.31.29.3.51.51.8.81.36.36.95.36 1.32 0 3.26-3.27 12.39-12.39 15.65-15.66.36-.36.36-.95 0-1.31" fill="#000000"/></g><g><path d="M647.8 7.49c.36-.36.95-.36 1.32 0 3.26 3.26 12.39 12.39 15.65 15.66.36.36.36.95 0 1.31-.29.3-.51.51-.8.81-.37.36-.96.36-1.32 0C659.39 22 650.26 12.88 647 9.61c-.37-.36-.37-.95 0-1.31.29-.3.51-.52.8-.81" fill="#000000"/><path d="M664.77 8.3c-.29-.3-.51-.52-.8-.81-.37-.36-.96-.36-1.32 0-3.26 3.26-12.39 12.39-15.65 15.66-.37.36-.37.95 0 1.31.29.3.51.51.8.81.36.36.95.36 1.32 0 3.26-3.27 12.39-12.39 15.65-15.66.36-.36.36-.95 0-1.31" fill="#000000"/></g><g><path d="M679.8 7.49c.36-.36.95-.36 1.32 0 3.26 3.26 12.39 12.39 15.65 15.66.36.36.36.95 0 1.31-.29.3-.51.51-.8.81-.37.36-.96.36-1.32 0C691.39 22 682.26 12.88 679 9.61c-.37-.36-.37-.95 0-1.31.29-.3.51-.52.8-.81" fill="#000000"/><path d="M696.77 8.3c-.29-.3-.51-.52-.8-.81-.37-.36-.96-.36-1.32 0-3.26 3.26-12.39 12.39-15.65 15.66-.37.36-.37.95 0 1.31.29.3.51.51.8.81.36.36.95.36 1.32 0 3.26-3.27 12.39-12.39 15.65-15.66.36-.36.36-.95 0-1.31" fill="#000000"/></g><g><path d="M711.8 7.49c.36-.36.95-.36 1.32 0 3.26 3.26 12.39 12.39 15.65 15.66.36.36.36.95 0 1.31-.29.3-.51.51-.8.81-.37.36-.96.36-1.32 0C723.39 22 714.26 12.88 711 9.61c-.37-.36-.37-.95 0-1.31.29-.3.51-.52.8-.81" fill="#000000"/><path d="M728.77 8.3c-.29-.3-.51-.52-.8-.81-.37-.36-.96-.36-1.32 0-3.26 3.26-12.39 12.39-15.65 15.66-.37.36-.37.95 0 1.31.29.3.51.51.8.81.36.36.95.36 1.32 0 3.26-3.27 12.39-12.39 15.65-15.66.36-.36.36-.95 0-1.31" fill="#000000"/></g><g><path d="M743.8 7.49c.36-.36.95-.36 1.32 0 3.26 3.26 12.39 12.39 15.65 15.66.36.36.36.95 0 1.31-.29.3-.51.51-.8.81-.37.36-.96.36-1.32 0C755.39 22 746.26 12.88 743 9.61c-.37-.36-.37-.95 0-1.31.29-.3.51-.52.8-.81" fill="#000000"/><path d="M760.77 8.3c-.29-.3-.51-.52-.8-.81-.37-.36-.96-.36-1.32 0-3.26 3.26-12.39 12.39-15.65 15.66-.37.36-.37.95 0 1.31.29.3.51.51.8.81.36.36.95.36 1.32 0 3.26-3.27 12.39-12.39 15.65-15.66.36-.36.36-.95 0-1.31" fill="#000000"/></g><g><path d="M775.8 7.49c.36-.36.95-.36 1.32 0 3.26 3.26 12.39 12.39 15.65 15.66.36.36.36.95 0 1.31-.29.3-.51.51-.8.81-.37.36-.96.36-1.32 0C787.39 22 778.26 12.88 775 9.61c-.37-.36-.37-.95 0-1.31.29-.3.51-.52.8-.81" fill="#000000"/><path d="M792.77 8.3c-.29-.3-.51-.52-.8-.81-.37-.36-.96-.36-1.32 0-3.26 3.26-12.39 12.39-15.65 15.66-.37.36-.37.95 0 1.31.29.3.51.51.8.81.36.36.95.36 1.32 0 3.26-3.27 12.39-12.39 15.65-15.66.36-.36.36-.95 0-1.31" fill="#000000"/></g><g><path d="M807.8 7.49c.36-.36.95-.36 1.32 0 3.26 3.26 12.39 12.39 15.65 15.66.36.36.36.95 0 1.31-.29.3-.51.51-.8.81-.37.36-.96.36-1.32 0C819.39 22 810.26 12.88 807 9.61c-.37-.36-.37-.95 0-1.31.29-.3.51-.52.8-.81" fill="#000000"/><path d="M824.77 8.3c-.29-.3-.51-.52-.8-.81-.37-.36-.96-.36-1.32 0-3.26 3.26-12.39 12.39-15.65 15.66-.37.36-.37.95 0 1.31.29.3.51.51.8.81.36.36.95.36 1.32 0 3.26-3.27 12.39-12.39 15.65-15.66.36-.36.36-.95 0-1.31" fill="#000000"/></g><g><path d="M839.8 7.49c.36-.36.95-.36 1.32 0 3.26 3.26 12.39 12.39 15.65 15.66.36.36.36.95 0 1.31-.29.3-.51.51-.8.81-.37.36-.96.36-1.32 0C851.39 22 842.26 12.88 839 9.61c-.37-.36-.37-.95 0-1.31.29-.3.51-.52.8-.81" fill="#000000"/><path d="M856.77 8.3c-.29-.3-.51-.52-.8-.81-.37-.36-.96-.36-1.32 0-3.26 3.26-12.39 12.39-15.65 15.66-.37.36-.37.95 0 1.31.29.3.51.51.8.81.36.36.95.36 1.32 0 3.26-3.27 12.39-12.39 15.65-15.66.36-.36.36-.95 0-1.31" fill="#000000"/></g><g><path d="M871.8 7.49c.36-.36.95-.36 1.32 0 3.26 3.26 12.39 12.39 15.65 15.66.36.36.36.95 0 1.31-.29.3-.51.51-.8.81-.37.36-.96.36-1.32 0C883.39 22 874.26 12.88 871 9.61c-.37-.36-.37-.95 0-1.31.29-.3.51-.52.8-.81" fill="#000000"/><path d="M888.77 8.3c-.29-.3-.51-.52-.8-.81-.37-.36-.96-.36-1.32 0-3.26 3.26-12.39 12.39-15.65 15.66-.37.36-.37.95 0 1.31.29.3.51.51.8.81.36.36.95.36 1.32 0 3.26-3.27 12.39-12.39 15.65-15.66.36-.36.36-.95 0-1.31" fill="#000000"/></g><g><path d="M903.8 7.49c.36-.36.95-.36 1.32 0 3.26 3.26 12.39 12.39 15.65 15.66.36.36.36.95 0 1.31-.29.3-.51.51-.8.81-.37.36-.96.36-1.32 0C915.39 22 906.26 12.88 903 9.61c-.37-.36-.37-.95 0-1.31.29-.3.51-.52.8-.81" fill="#000000"/><path d="M920.77 8.3c-.29-.3-.51-.52-.8-.81-.37-.36-.96-.36-1.32 0-3.26 3.26-12.39 12.39-15.65 15.66-.37.36-.37.95 0 1.31.29.3.51.51.8.81.36.36.95.36 1.32 0 3.26-3.27 12.39-12.39 15.65-15.66.36-.36.36-.95 0-1.31" fill="#000000"/></g><g><path d="M935.8 7.49c.36-.36.95-.36 1.32 0 3.26 3.26 12.39 12.39 15.65 15.66.36.36.36.95 0 1.31-.29.3-.51.51-.8.81-.37.36-.96.36-1.32 0C947.39 22 938.26 12.88 935 9.61c-.37-.36-.37-.95 0-1.31.29-.3.51-.52.8-.81" fill="#000000"/><path d="M952.77 8.3c-.29-.3-.51-.52-.8-.81-.37-.36-.96-.36-1.32 0-3.26 3.26-12.39 12.39-15.65 15.66-.37.36-.37.95 0 1.31.29.3.51.51.8.81.36.36.95.36 1.32 0 3.26-3.27 12.39-12.39 15.65-15.66.36-.36.36-.95 0-1.31" fill="#000000"/></g><g><path d="M967.8 7.49c.36-.36.95-.36 1.32 0 3.26 3.26 12.39 12.39 15.65 15.66.36.36.36.95 0 1.31-.29.3-.51.51-.8.81-.37.36-.96.36-1.32 0C979.39 22 970.26 12.88 967 9.61c-.37-.36-.37-.95 0-1.31.29-.3.51-.52.8-.81" fill="#000000"/><path d="M984.77 8.3c-.29-.3-.51-.52-.8-.81-.37-.36-.96-.36-1.32 0-3.26 3.26-12.39 12.39-15.65 15.66-.37.36-.37.95 0 1.31.29.3.51.51.8.81.36.36.95.36 1.32 0 3.26-3.27 12.39-12.39 15.65-15.66.36-.36.36-.95 0-1.31" fill="#000000"/></g></svg>