<svg xmlns="http://www.w3.org/2000/svg" viewBox="0 0 1952 32" width="1952" height="32"><path d="M4 16.57c0 .51.42.93.93.93h22.14c.51 0 .93-.42.93-.93v-1.14c0-.51-.42-.93-.93-.93H4.93c-.51 0-.93.42-.93.93v1.14zM4 8.93c0-.51.41-.93.93-.93h22.14c.51 0 .93.42.93.93v1.14c0 .51-.42.93-.93.93H4.93c-.52 0-.93-.42-.93-.93V8.93M4 23.07c0 .52.42.93.93.93h22.14c.51 0 .93-.41.93-.93v-1.14c0-.51-.42-.93-.93-.93H4.93c-.51 0-.93.42-.93.93v1.14zM36 16.57c0 .51.42.93.93.93h22.14c.51 0 .93-.42.93-.93v-1.14c0-.51-.42-.93-.93-.93H36.93c-.51 0-.93.42-.93.93v1.14zM36 9.354c0-.453.411-.826.93-.826h22.14c.51 0 .93.373.93.826v1.014c0-.029-.023-.052-.052-.052-.41.482-1.216.878-2.108.878-6.998 0-13.992.024-20.962.052-.491.021-.878-.354-.878-.815V9.354M36 22.709c0 .519.42.93.93.93h22.14c.51 0 .93-.411.93-.93v-1.14c0-.51-.42-.93-.93-.93H36.93c-.51 0-.93.42-.93.93v1.14zM68 16.57c0 .51.42.93.93.93h22.14c.51 0 .93-.42.93-.93v-1.14c0-.51-.42-.93-.93-.93H68.93c-.51 0-.93.42-.93.93v1.14zM68 9.779c0-.397.411-.723.93-.723h22.14c.51 0 .93.326.93.723v.887c0-.057-.047-.104-.103-.104-.82.454-2.014.827-3.287.827-6.617 0-13.223.047-19.783.103-.463.042-.827-.289-.827-.7V9.779M68 22.348c0 .519.42.93.93.93h22.14c.51 0 .93-.411.93-.93v-1.14c0-.51-.42-.93-.93-.93H68.93c-.51 0-.93.42-.93.93v1.14zM100 16.57c0 .51.42.93.93.93h22.14c.51 0 .93-.42.93-.93v-1.14c0-.51-.42-.93-.93-.93h-22.14c-.51 0-.93.42-.93.93v1.14zM100 10.203c0-.34.412-.62.93-.62h22.14c.51 0 .93.28.93.62v.76c0-.085-.07-.155-.155-.155-1.23.425-2.81.775-4.465.775-6.235 0-12.455.07-18.605.155-.433.064-.775-.223-.775-.585v-.95M100 21.987c0 .518.42.93.93.93h22.14c.51 0 .93-.412.93-.93v-1.14c0-.51-.42-.93-.93-.93h-22.14c-.51 0-.93.42-.93.93v1.14zM132 16.57c0 .51.42.93.93.93h22.14c.51 0 .93-.42.93-.93v-1.14c0-.51-.42-.93-.93-.93h-22.14c-.51 0-.93.42-.93.93v1.14zM132 10.628c0-.284.412-.517.93-.517h22.14c.51 0 .93.233.93.517v.633c0-.113-.093-.207-.207-.207-1.64.397-3.606.724-5.643.724-5.853 0-11.687.093-17.427.206-.404.085-.723-.157-.723-.47v-.886M132 21.626c0 .517.42.93.93.93h22.14c.51 0 .93-.413.93-.93v-1.14c0-.51-.42-.93-.93-.93h-22.14c-.51 0-.93.42-.93.93v1.14zM164 16.57c0 .51.42.93.93.93h22.14c.51 0 .93-.42.93-.93v-1.14c0-.51-.42-.93-.93-.93h-22.14c-.51 0-.93.42-.93.93v1.14zM164 11.052c0-.226.413-.413.93-.413h22.14c.51 0 .93.187.93.413v.507c0-.142-.117-.258-.258-.258-2.05.368-4.404.671-6.822.671-5.472 0-10.918.117-16.248.259-.376.105-.672-.093-.672-.355v-.824M164 21.264c0 .518.42.93.93.93h22.14c.51 0 .93-.412.93-.93v-1.14c0-.51-.42-.93-.93-.93h-22.14c-.51 0-.93.42-.93.93v1.14zM196 16.57c0 .51.42.93.93.93h22.14c.51 0 .93-.42.93-.93v-1.14c0-.51-.42-.93-.93-.93h-22.14c-.51 0-.93.42-.93.93v1.14zM196 11.477c0-.17.413-.31.93-.31h22.14c.51 0 .93.14.93.31v.38c0-.17-.14-.31-.31-.31-2.46.34-5.2.62-8 .62-5.09 0-10.15.14-15.07.31-.347.126-.62-.027-.62-.24v-.76M196 20.903c0 .517.42.93.93.93h22.14c.51 0 .93-.413.93-.93v-1.14c0-.51-.42-.93-.93-.93h-22.14c-.51 0-.93.42-.93.93v1.14zM228 16.57c0 .51.42.93.93.93h22.14c.51 0 .93-.42.93-.93v-1.14c0-.51-.42-.93-.93-.93h-22.14c-.51 0-.93.42-.93.93v1.14zM228 11.901c0-.113.414-.207.93-.207h22.14c.51 0 .93.094.93.207v.253c0-.198-.163-.361-.362-.361-2.87.311-5.996.568-9.178.568-4.708 0-9.382.163-13.892.362-.317.148-.568.039-.568-.125v-.697M228 20.542c0 .516.42.93.93.93h22.14c.51 0 .93-.414.93-.93v-1.14c0-.51-.42-.93-.93-.93h-22.14c-.51 0-.93.42-.93.93v1.14zM260 16.57c0 .51.42.93.93.93h22.14c.51 0 .93-.42.93-.93v-1.14c0-.51-.42-.93-.93-.93h-22.14c-.51 0-.93.42-.93.93v1.14zM260 12.326c0-.057.414-.104.93-.104h22.14c.51 0 .93.047.93.104v.126c0-.226-.187-.413-.413-.413-3.28.283-6.794.517-10.357.517-4.327 0-8.613.186-12.713.413-.289.169-.517.104-.517-.01v-.633M260 20.181c0 .516.42.93.93.93h22.14c.51 0 .93-.414.93-.93v-1.14c0-.51-.42-.93-.93-.93h-22.14c-.51 0-.93.42-.93.93v1.14z" fill="#000000"/><path d="M292 16.57c0 .51.42.93.93.93h22.14c.51 0 .93-.42.93-.93v-1.14c0-.51-.42-.93-.93-.93h-22.14c-.51 0-.93.42-.93.93v1.14z" fill="#000000" fill-opacity=".997135"/><path d="M292 12.75h24c0-.255-.21-.465-.465-.465-3.69.255-7.59.465-11.535.465-3.945 0-7.845.21-11.535.465-.26.19-.465.17-.465.105v-.57M292 19.82c0 .515.42.93.93.93h22.14c.51 0 .93-.415.93-.93v-1.14c0-.51-.42-.93-.93-.93h-22.14c-.51 0-.93.42-.93.93v1.14z" fill="#000000"/><path d="M324 16.57c0 .51.42.93.93.93h22.14c.51 0 .93-.42.93-.93v-1.14c0-.51-.42-.93-.93-.93h-22.14c-.51 0-.93.42-.93.93v1.14z" fill="#000000" fill-opacity=".949379"/><path d="M324 13.174c0 .057.416.104.93.104h22.14c.51 0 .93-.047.93-.104v-.126c0-.284-.233-.517-.517-.517-4.1.227-8.386.413-12.713.413-3.563 0-7.077.234-10.357.517-.231.211-.413.236-.413.22v-.507M324 19.459c0 .514.42.93.93.93h22.14c.51 0 .93-.416.93-.93v-1.14c0-.51-.42-.93-.93-.93h-22.14c-.51 0-.93.42-.93.93v1.14z" fill="#000000"/><path d="M356 16.57c0 .51.42.93.93.93h22.14c.51 0 .93-.42.93-.93v-1.14c0-.51-.42-.93-.93-.93h-22.14c-.51 0-.93.42-.93.93v1.14z" fill="#000000" fill-opacity=".901624"/><path d="M356 13.599c0 .113.416.207.93.207h22.14c.51 0 .93-.094.93-.207v-.253c0-.312-.257-.569-.568-.569-4.51.199-9.184.362-13.892.362-3.182 0-6.308.257-9.178.568-.203.232-.362.301-.362.335v-.443M356 19.098c0 .514.42.93.93.93h22.14c.51 0 .93-.416.93-.93v-1.14c0-.51-.42-.93-.93-.93h-22.14c-.51 0-.93.42-.93.93v1.14z" fill="#000000"/><path d="M388 16.57c0 .51.42.93.93.93h22.14c.51 0 .93-.42.93-.93v-1.14c0-.51-.42-.93-.93-.93h-22.14c-.51 0-.93.42-.93.93v1.14z" fill="#000000" fill-opacity=".853868"/><path d="M388 14.023c0 .17.417.31.93.31h22.14c.51 0 .93-.14.93-.31v-.38c0-.34-.28-.62-.62-.62-4.92.17-9.98.31-15.07.31-2.8 0-5.54.28-8 .62-.173.254-.31.367-.31.45v-.38M388 18.737c0 .513.42.93.93.93h22.14c.51 0 .93-.417.93-.93v-1.14c0-.51-.42-.93-.93-.93h-22.14c-.51 0-.93.42-.93.93v1.14z" fill="#000000"/><path d="M420 16.57c0 .51.42.93.93.93h22.14c.51 0 .93-.42.93-.93v-1.14c0-.51-.42-.93-.93-.93h-22.14c-.51 0-.93.42-.93.93v1.14z" fill="#000000" fill-opacity=".806113"/><path d="M420 14.448c0 .226.417.413.93.413h22.14c.51 0 .93-.187.93-.413v-.507c0-.368-.303-.672-.672-.672-5.33.142-10.776.259-16.248.259-2.418 0-4.772.303-6.822.671-.144.275-.258.433-.258.565v-.316M420 18.376c0 .512.42.93.93.93h22.14c.51 0 .93-.418.93-.93v-1.14c0-.51-.42-.93-.93-.93h-22.14c-.51 0-.93.42-.93.93v1.14z" fill="#000000"/><path d="M452 16.57c0 .51.42.93.93.93h22.14c.51 0 .93-.42.93-.93v-1.14c0-.51-.42-.93-.93-.93h-22.14c-.51 0-.93.42-.93.93v1.14z" fill="#000000" fill-opacity=".758357"/><path d="M452 14.872c0 .284.418.517.93.517h22.14c.51 0 .93-.233.93-.517v-.633c0-.397-.327-.723-.723-.723-5.74.113-11.574.206-17.427.206-2.037 0-4.003.327-5.643.724-.116.295-.207.497-.207.68v-.254M452 18.014c0 .513.42.93.93.93h22.14c.51 0 .93-.417.93-.93v-1.14c0-.51-.42-.93-.93-.93h-22.14c-.51 0-.93.42-.93.93v1.14z" fill="#000000"/><path d="M484 16.57c0 .51.42.93.93.93h22.14c.51 0 .93-.42.93-.93v-1.14c0-.51-.42-.93-.93-.93h-22.14c-.51 0-.93.42-.93.93v1.14z" fill="#000000" fill-opacity=".710602"/><path d="M484 15.297c0 .34.418.62.93.62h22.14c.51 0 .93-.28.93-.62v-.76c0-.425-.35-.775-.775-.775-6.15.085-12.37.155-18.605.155-1.655 0-3.235.35-4.465.775-.087.316-.155.563-.155.795v-.19" fill="#000000"/><path d="M484 17.653c0 .512.42.93.93.93h22.14c.51 0 .93-.418.93-.93v-1.14c0-.51-.42-.93-.93-.93h-22.14c-.51 0-.93.42-.93.93v1.14z" fill="#000000"/><path d="M516 16.57c0 .51.42.93.93.93h22.14c.51 0 .93-.42.93-.93v-1.14c0-.51-.42-.93-.93-.93h-22.14c-.51 0-.93.42-.93.93v1.14z" fill="#000000" fill-opacity=".662846"/><path d="M516 15.721c0 .397.419.723.93.723h22.14c.51 0 .93-.326.93-.723v-.887c0-.453-.373-.826-.827-.826-6.56.056-13.166.103-19.783.103-1.273 0-2.467.373-3.287.827-.057.338-.103.629-.103.91v-.127" fill="#000000"/><path d="M516 17.292c0 .511.42.93.93.93h22.14c.51 0 .93-.419.93-.93v-1.14c0-.51-.42-.93-.93-.93h-22.14c-.51 0-.93.42-.93.93v1.14z" fill="#000000"/><path d="M548 16.57c0 .51.42.93.93.93h22.14c.51 0 .93-.42.93-.93v-1.14c0-.51-.42-.93-.93-.93h-22.14c-.51 0-.93.42-.93.93v1.14z" fill="#000000" fill-opacity=".615091"/><path d="M548 16.146c0 .453.419.826.93.826h22.14c.51 0 .93-.373.93-.826v-1.014c0-.481-.397-.878-.878-.878-6.97.028-13.964.052-20.962.052-.892 0-1.698.396-2.108.878-.029.359-.052.694-.052 1.025v-.063" fill="#000000"/><path d="M548 16.931c0 .511.42.93.93.93h22.14c.51 0 .93-.419.93-.93v-1.14c0-.51-.42-.93-.93-.93h-22.14c-.51 0-.93.42-.93.93v1.14z" fill="#000000"/><path d="M580 16.57c0 .51.42.93.93.93h22.14c.51 0 .93-.42.93-.93v-1.14c0-.51-.42-.93-.93-.93h-22.14c-.51 0-.93.42-.93.93v1.14z" fill="#000000" fill-opacity=".567335"/><path d="M580 15.43c0-.51.42-.93.93-.93h22.14c.51 0 .93.42.93.93v1.14c0 .51-.42.93-.93.93h-22.14c-.51 0-.93-.42-.93-.93v-1.14" fill="#000000"/><path d="M604 16.57v-1.14c0-.51-.42-.93-.93-.93h-22.14c-.51 0-.93.42-.93.93v1.14c0 .51.42.93.93.93h22.14c.51 0 .93-.42.93-.93" fill="#000000"/><path d="M612 16.57c0 .51.42.93.93.93h22.14c.51 0 .93-.42.93-.93v-1.14c0-.51-.42-.93-.93-.93h-22.14c-.51 0-.93.42-.93.93v1.14z" fill="#000000" fill-opacity=".51958"/><path d="M611.877 15.687c-.012-.515.403-.948.917-.96 7.514-.105 14.837-.401 22.351-.507.514-.012.948.403.96.917.009.383.016.768.026 1.151.012.515-.403.949-.918.96-7.513.106-14.837.402-22.35.508-.515.011-.948-.403-.96-.918l-.026.026v-1.177" fill="#000000"/><path d="M636.105 16.838v-1.177c.009-.517-.417-.943-.935-.934-7.607.012-15.207.012-22.814 0-.421-.105-.559.032-.453.453.012.38.012.754 0 1.134-.01-.009-.017-.016-.026-.026-.012.515.403.949.917.96 7.514.106 14.837.402 22.351.508.514.011.948-.403.96-.918" fill="#000000"/><path d="M644 16.57c0 .51.42.93.93.93h22.14c.51 0 .93-.42.93-.93v-1.14c0-.51-.42-.93-.93-.93h-22.14c-.51 0-.93.42-.93.93v1.14z" fill="#000000" fill-opacity=".471824"/><path d="M643.648 16.165c-.033-.524.371-.983.894-1.016 7.762-.302 14.979-1.147 22.741-1.45.524-.033.983.371 1.016.895.027.387.047.783.074 1.17.034.524-.37.983-.894 1.017-7.761.302-14.979 1.147-22.741 1.45-.523.033-.982-.371-1.016-.895-.027.028-.047.048-.074.075v-1.246" fill="#000000"/><path d="M668.299 17.336V16.09c.027-.529-.412-.968-.942-.941-8.029.033-16.038.033-24.068 0-.255-.302.131-.688.433-.434.034.382.034.743 0 1.124-.027-.027-.047-.047-.074-.075-.033.524.371.983.894 1.017 7.762.302 14.979 1.147 22.741 1.45.524.033.983-.371 1.016-.895" fill="#000000"/><g><path d="M676 16.57c0 .51.42.93.93.93h22.14c.51 0 .93-.42.93-.93v-1.14c0-.51-.42-.93-.93-.93h-22.14c-.51 0-.93.42-.93.93v1.14z" fill="#000000" fill-opacity=".424069"/><path d="M675.525 16.422c-.045-.528.354-1.001.881-1.046 7.895-.407 15.056-1.548 22.952-1.957.528-.045 1.001.354 1.046.882.036.39.064.791.1 1.181.046.529-.353 1.002-.882 1.047-7.895.409-15.056 1.549-22.951 1.957-.527.045-1-.353-1.046-.882-.036.037-.064.065-.1.101v-1.283" fill="#000000"/><path d="M700.404 17.604v-1.283c.036-.536-.409-.981-.947-.945-8.256.045-16.484.045-24.742 0-.166-.407.502-1.076.91-.911.046.383.046.736 0 1.119-.036-.038-.064-.064-.1-.102-.045.529.354 1.002.881 1.047 7.895.409 15.056 1.549 22.952 1.957.528.045 1.001-.353 1.046-.882" fill="#000000"/></g><g><path d="M708 16.57c0 .51.42.93.93.93h22.14c.51 0 .93-.42.93-.93v-1.14c0-.51-.42-.93-.93-.93h-22.14c-.51 0-.93.42-.93.93v1.14z" fill="#000000" fill-opacity=".376313"/><path d="M707.719 16.018c-.027-.521.38-.972.901-.999 7.685-.241 14.935-.918 22.62-1.16.521-.026.973.381.999.902.022.386.038.779.06 1.165.027.521-.38.972-.902.998-7.685.243-14.935.918-22.62 1.16-.521.027-.972-.38-.999-.901-.022.022-.038.038-.059.06v-1.225" fill="#000000"/><path d="M732.239 17.183v-1.225c.022-.525-.413-.96-.939-.939-7.9.027-15.783.027-23.683 0-.306-.241-.081-.466.161-.161.027.382.027.746 0 1.128-.022-.023-.038-.038-.059-.06-.027.521.38.972.901.998 7.685.243 14.935.918 22.62 1.16.521.027.973-.38.999-.901" fill="#000000"/></g><g><path d="M740 16.57c0 .51.42.93.93.93h22.14c.51 0 .93-.42.93-.93v-1.14c0-.51-.42-.93-.93-.93h-22.14c-.51 0-.93.42-.93.93v1.14z" fill="#000000" fill-opacity=".328558"/><path d="M740.44 14.511c.041-.493.481-.864.975-.822 6.903.377 14.486 1.434 21.389 1.812.492.042.864.481.822.974-.033.371-.059.731-.092 1.102-.043.493-.483.864-.976.822-6.903-.378-14.485-1.434-21.388-1.812-.494-.042-.866-.482-.823-.974.034-.035.059-.06.093-.094v-1.008" fill="#000000"/><path d="M763.626 15.613v-1.008c-.033-.486-.43-.883-.915-.916-6.568-.042-13.163-.042-19.73 0-.828.377-2.256 1.805-2.634 2.635-.043.377-.043.782 0 1.159.034.035.059.059.093.094.041.493.481.864.975.822 6.903-.378 14.486-1.434 21.389-1.812.492-.042.864-.482.822-.974" fill="#000000"/></g><g><path d="M772 16.57c0 .51.42.93.93.93h22.14c.51 0 .93-.42.93-.93v-1.14c0-.51-.42-.93-.93-.93h-22.14c-.51 0-.93.42-.93.93v1.14z" fill="#000000" fill-opacity=".280802"/><path d="M773.9 11.46c.18-.435.685-.645 1.125-.465 5.32 1.63 13.575 6.195 18.895 7.83.435.18.645.685.465 1.12-.145.34-.255.635-.4.975-.185.435-.69.645-1.125.465-5.32-1.635-13.575-6.195-18.895-7.83-.44-.18-.65-.685-.465-1.12.145-.15.255-.26.4-.405v-.57" fill="#000000"/><path d="M794.385 12.435v-.57c-.145-.405-.465-.725-.865-.87-3.875-.18-7.86-.18-11.73 0-1.885 1.63-6.66 6.405-8.29 8.295-.185.37-.185.855 0 1.225.145.15.255.255.4.405.18.435.685.645 1.125.465 5.32-1.635 13.575-6.195 18.895-7.83.435-.18.645-.685.465-1.12" fill="#000000"/></g><g><path d="M804 16.57c0 .51.42.93.93.93h22.14c.51 0 .93-.42.93-.93v-1.14c0-.51-.42-.93-.93-.93h-22.14c-.51 0-.93.42-.93.93v1.14z" fill="#000000" fill-opacity=".233047"/><path d="M807.36 8.409c.319-.377.889-.426 1.275-.108 3.737 2.883 12.664 10.956 16.401 13.848.378.318.426.889.108 1.266-.257.309-.451.539-.708.848-.327.377-.897.426-1.274.108-3.737-2.892-12.665-10.956-16.402-13.848-.386-.318-.434-.888-.107-1.266.256-.265.451-.46.707-.716v-.132" fill="#000000"/><path d="M825.144 9.257v-.132c-.257-.324-.5-.567-.815-.824-1.182-.318-2.557-.318-3.73 0-2.942 2.883-11.064 11.005-13.946 13.955-.327.363-.327.928 0 1.291.256.265.451.451.707.716.319.377.889.426 1.275.108 3.737-2.892 12.664-10.956 16.401-13.848.378-.318.426-.888.108-1.266" fill="#000000"/></g><g><path d="M836 16.57c0 .51.42.93.93.93h22.14c.51 0 .93-.42.93-.93v-1.14c0-.51-.42-.93-.93-.93h-22.14c-.51 0-.93.42-.93.93v1.14z" fill="#000000" fill-opacity=".185291"/><path d="M840.081 6.902c.387-.349.99-.318 1.349.069 2.955 3.501 12.215 13.308 15.17 16.82.349.386.317.989-.069 1.338-.312.294-.548.491-.86.785-.397.349-1 .318-1.348-.068-2.955-3.513-12.215-13.308-15.17-16.82-.359-.387-.328-.99.069-1.339.312-.322.548-.558.859-.87v.085" fill="#000000"/><path d="M856.531 7.687v.085c-.312-.285-.517-.49-.791-.801.15-.387.063-.387.223 0-3.464 3.501-13.239 13.276-16.741 16.751-.397.358-.397.964 0 1.322.312.323.548.548.859.87.387.349.99.318 1.349-.068 2.955-3.513 12.215-13.308 15.17-16.82.349-.387.317-.99-.069-1.339" fill="#000000"/></g><g><path d="M868 16.57c0 .51.42.93.93.93h22.14c.51 0 .93-.42.93-.93v-1.14c0-.51-.42-.93-.93-.93h-22.14c-.51 0-.93.42-.93.93v1.14z" fill="#000000" fill-opacity=".137536"/><path d="M872.275 6.497c.405-.341 1.016-.288 1.369.117 2.745 3.667 12.094 13.938 14.839 17.617.341.405.288 1.016-.117 1.358-.326.29-.573.478-.9.769-.416.341-1.027.288-1.368-.117-2.746-3.678-12.094-13.938-14.839-17.617-.353-.405-.3-1.017.116-1.358.326-.337.574-.585.9-.911v.142" fill="#000000"/><path d="M888.366 7.266v.143c-.326-.274-.521-.469-.784-.795.507-.405.766-.405 1.283 0-3.604 3.667-13.822 13.886-17.49 17.501-.416.358-.416.974 0 1.331.326.338.574.574.9.912.405.341 1.016.288 1.369-.117 2.745-3.678 12.094-13.938 14.839-17.617.341-.405.288-1.017-.117-1.358" fill="#000000"/></g><g><path d="M900 16.57c0 .51.42.93.93.93h22.14c.51 0 .93-.42.93-.93v-1.14c0-.51-.42-.93-.93-.93h-22.14c-.51 0-.93.42-.93.93v1.14z" fill="#000000" fill-opacity=".08978"/><path d="M904.152 6.755c.393-.346.999-.307 1.356.086 2.878 3.562 12.171 13.537 15.049 17.11.346.393.307.999-.086 1.345-.317.293-.557.487-.874.78-.404.346-1.01.307-1.356-.087-2.879-3.572-12.171-13.537-15.049-17.11-.357-.393-.318-.999.086-1.345.317-.328.557-.568.874-.885v.106" fill="#000000"/><path d="M920.471 7.534v.106c-.317-.281-.518-.482-.788-.799.279-.393.318-.393.608 0-3.515 3.562-13.451 13.498-17.013 17.024-.404.358-.404.967 0 1.326.317.327.557.557.874.885.393.346.999.307 1.356-.087 2.878-3.572 12.171-13.537 15.049-17.11.346-.393.307-.999-.086-1.345" fill="#000000"/></g><g><path d="M932 16.57c0 .51.42.93.93.93h22.14c.51 0 .93-.42.93-.93v-1.14c0-.51-.42-.93-.93-.93h-22.14c-.51 0-.93.42-.93.93v1.14z" fill="#000000" fill-opacity=".042025"/><path d="M935.923 7.233c.372-.355.967-.342 1.333.03 3.126 3.365 12.313 12.791 15.439 16.167.356.372.342.968-.03 1.323-.299.297-.526.502-.826.799-.382.355-.977.341-1.332-.03-3.127-3.376-12.313-12.792-15.44-16.168-.365-.371-.352-.967.03-1.322.3-.31.527-.537.826-.836v.037" fill="#000000"/><path d="M952.665 8.032v.037c-.299-.293-.513-.507-.795-.806-.143-.372-.513-.372-.646 0-3.349 3.365-12.761 12.778-16.127 16.137-.382.36-.382.956 0 1.316.3.309.527.526.826.836.372.355.967.341 1.333-.03 3.126-3.376 12.313-12.792 15.439-16.168.356-.371.342-.967-.03-1.322" fill="#000000"/></g><g><path d="M967.8 7.49c.36-.36.95-.36 1.32 0 3.26 3.26 12.39 12.39 15.65 15.66.36.36.36.95 0 1.31-.29.3-.51.51-.8.81-.37.36-.96.36-1.32 0C979.39 22 970.26 12.88 967 9.61c-.37-.36-.37-.95 0-1.31.29-.3.51-.52.8-.81" fill="#000000"/><path d="M984.77 8.3c-.29-.3-.51-.52-.8-.81-.37-.36-.96-.36-1.32 0-3.26 3.26-12.39 12.39-15.65 15.66-.37.36-.37.95 0 1.31.29.3.51.51.8.81.36.36.95.36 1.32 0 3.26-3.27 12.39-12.39 15.65-15.66.36-.36.36-.95 0-1.31" fill="#000000"/></g><g><path d="M999.8 7.49c.36-.36.95-.36 1.32 0 3.26 3.26 12.39 12.39 15.65 15.66.36.36.36.95 0 1.31-.29.3-.51.51-.8.81-.37.36-.96.36-1.32 0-3.26-3.27-12.39-12.39-15.65-15.66-.37-.36-.37-.95 0-1.31.29-.3.51-.52.8-.81" fill="#000000"/><path d="M1016.77 8.3c-.29-.3-.51-.52-.8-.81-.37-.36-.96-.36-1.32 0-3.26 3.26-12.39 12.39-15.65 15.66-.37.36-.37.95 0 1.31.29.3.51.51.8.81.36.36.95.36 1.32 0 3.26-3.27 12.39-12.39 15.65-15.66.36-.36.36-.95 0-1.31" fill="#000000"/></g><g><path d="M1031.8 7.49c.36-.36.95-.36 1.32 0 3.26 3.26 12.39 12.39 15.65 15.66.36.36.36.95 0 1.31-.29.3-.51.51-.8.81-.37.36-.96.36-1.32 0-3.26-3.27-12.39-12.39-15.65-15.66-.37-.36-.37-.95 0-1.31.29-.3.51-.52.8-.81" fill="#000000"/><path d="M1048.77 8.3c-.29-.3-.51-.52-.8-.81-.37-.36-.96-.36-1.32 0-3.26 3.26-12.39 12.39-15.65 15.66-.37.36-.37.95 0 1.31.29.3.51.51.8.81.36.36.95.36 1.32 0 3.26-3.27 12.39-12.39 15.65-15.66.36-.36.36-.95 0-1.31" fill="#000000"/></g><g><path d="M1063.8 7.49c.36-.36.95-.36 1.32 0 3.26 3.26 12.39 12.39 15.65 15.66.36.36.36.95 0 1.31-.29.3-.51.51-.8.81-.37.36-.96.36-1.32 0-3.26-3.27-12.39-12.39-15.65-15.66-.37-.36-.37-.95 0-1.31.29-.3.51-.52.8-.81" fill="#000000"/><path d="M1080.77 8.3c-.29-.3-.51-.52-.8-.81-.37-.36-.96-.36-1.32 0-3.26 3.26-12.39 12.39-15.65 15.66-.37.36-.37.95 0 1.31.29.3.51.51.8.81.36.36.95.36 1.32 0 3.26-3.27 12.39-12.39 15.65-15.66.36-.36.36-.95 0-1.31" fill="#000000"/></g><g><path d="M1095.8 7.49c.36-.36.95-.36 1.32 0 3.26 3.26 12.39 12.39 15.65 15.66.36.36.36.95 0 1.31-.29.3-.51.51-.8.81-.37.36-.96.36-1.32 0-3.26-3.27-12.39-12.39-15.65-15.66-.37-.36-.37-.95 0-1.31.29-.3.51-.52.8-.81" fill="#000000"/><path d="M1112.77 8.3c-.29-.3-.51-.52-.8-.81-.37-.36-.96-.36-1.32 0-3.26 3.26-12.39 12.39-15.65 15.66-.37.36-.37.95 0 1.31.29.3.51.51.8.81.36.36.95.36 1.32 0 3.26-3.27 12.39-12.39 15.65-15.66.36-.36.36-.95 0-1.31" fill="#000000"/></g><g><path d="M1127.8 7.49c.36-.36.95-.36 1.32 0 3.26 3.26 12.39 12.39 15.65 15.66.36.36.36.95 0 1.31-.29.3-.51.51-.8.81-.37.36-.96.36-1.32 0-3.26-3.27-12.39-12.39-15.65-15.66-.37-.36-.37-.95 0-1.31.29-.3.51-.52.8-.81" fill="#000000"/><path d="M1144.77 8.3c-.29-.3-.51-.52-.8-.81-.37-.36-.96-.36-1.32 0-3.26 3.26-12.39 12.39-15.65 15.66-.37.36-.37.95 0 1.31.29.3.51.51.8.81.36.36.95.36 1.32 0 3.26-3.27 12.39-12.39 15.65-15.66.36-.36.36-.95 0-1.31" fill="#000000"/></g><g><path d="M1159.8 7.49c.36-.36.95-.36 1.32 0 3.26 3.26 12.39 12.39 15.65 15.66.36.36.36.95 0 1.31-.29.3-.51.51-.8.81-.37.36-.96.36-1.32 0-3.26-3.27-12.39-12.39-15.65-15.66-.37-.36-.37-.95 0-1.31.29-.3.51-.52.8-.81" fill="#000000"/><path d="M1176.77 8.3c-.29-.3-.51-.52-.8-.81-.37-.36-.96-.36-1.32 0-3.26 3.26-12.39 12.39-15.65 15.66-.37.36-.37.95 0 1.31.29.3.51.51.8.81.36.36.95.36 1.32 0 3.26-3.27 12.39-12.39 15.65-15.66.36-.36.36-.95 0-1.31" fill="#000000"/></g><g><path d="M1191.8 7.49c.36-.36.95-.36 1.32 0 3.26 3.26 12.39 12.39 15.65 15.66.36.36.36.95 0 1.31-.29.3-.51.51-.8.81-.37.36-.96.36-1.32 0-3.26-3.27-12.39-12.39-15.65-15.66-.37-.36-.37-.95 0-1.31.29-.3.51-.52.8-.81" fill="#000000"/><path d="M1208.77 8.3c-.29-.3-.51-.52-.8-.81-.37-.36-.96-.36-1.32 0-3.26 3.26-12.39 12.39-15.65 15.66-.37.36-.37.95 0 1.31.29.3.51.51.8.81.36.36.95.36 1.32 0 3.26-3.27 12.39-12.39 15.65-15.66.36-.36.36-.95 0-1.31" fill="#000000"/></g><g><path d="M1223.8 7.49c.36-.36.95-.36 1.32 0 3.26 3.26 12.39 12.39 15.65 15.66.36.36.36.95 0 1.31-.29.3-.51.51-.8.81-.37.36-.96.36-1.32 0-3.26-3.27-12.39-12.39-15.65-15.66-.37-.36-.37-.95 0-1.31.29-.3.51-.52.8-.81" fill="#000000"/><path d="M1240.77 8.3c-.29-.3-.51-.52-.8-.81-.37-.36-.96-.36-1.32 0-3.26 3.26-12.39 12.39-15.65 15.66-.37.36-.37.95 0 1.31.29.3.51.51.8.81.36.36.95.36 1.32 0 3.26-3.27 12.39-12.39 15.65-15.66.36-.36.36-.95 0-1.31" fill="#000000"/></g><g><path d="M1255.8 7.49c.36-.36.95-.36 1.32 0 3.26 3.26 12.39 12.39 15.65 15.66.36.36.36.95 0 1.31-.29.3-.51.51-.8.81-.37.36-.96.36-1.32 0-3.26-3.27-12.39-12.39-15.65-15.66-.37-.36-.37-.95 0-1.31.29-.3.51-.52.8-.81" fill="#000000"/><path d="M1272.77 8.3c-.29-.3-.51-.52-.8-.81-.37-.36-.96-.36-1.32 0-3.26 3.26-12.39 12.39-15.65 15.66-.37.36-.37.95 0 1.31.29.3.51.51.8.81.36.36.95.36 1.32 0 3.26-3.27 12.39-12.39 15.65-15.66.36-.36.36-.95 0-1.31" fill="#000000"/></g><g><path d="M1287.8 7.49c.36-.36.95-.36 1.32 0 3.26 3.26 12.39 12.39 15.65 15.66.36.36.36.95 0 1.31-.29.3-.51.51-.8.81-.37.36-.96.36-1.32 0-3.26-3.27-12.39-12.39-15.65-15.66-.37-.36-.37-.95 0-1.31.29-.3.51-.52.8-.81" fill="#000000"/><path d="M1304.77 8.3c-.29-.3-.51-.52-.8-.81-.37-.36-.96-.36-1.32 0-3.26 3.26-12.39 12.39-15.65 15.66-.37.36-.37.95 0 1.31.29.3.51.51.8.81.36.36.95.36 1.32 0 3.26-3.27 12.39-12.39 15.65-15.66.36-.36.36-.95 0-1.31" fill="#000000"/></g><g><path d="M1319.8 7.49c.36-.36.95-.36 1.32 0 3.26 3.26 12.39 12.39 15.65 15.66.36.36.36.95 0 1.31-.29.3-.51.51-.8.81-.37.36-.96.36-1.32 0-3.26-3.27-12.39-12.39-15.65-15.66-.37-.36-.37-.95 0-1.31.29-.3.51-.52.8-.81" fill="#000000"/><path d="M1336.77 8.3c-.29-.3-.51-.52-.8-.81-.37-.36-.96-.36-1.32 0-3.26 3.26-12.39 12.39-15.65 15.66-.37.36-.37.95 0 1.31.29.3.51.51.8.81.36.36.95.36 1.32 0 3.26-3.27 12.39-12.39 15.65-15.66.36-.36.36-.95 0-1.31" fill="#000000"/></g><g><path d="M1351.8 7.49c.36-.36.95-.36 1.32 0 3.26 3.26 12.39 12.39 15.65 15.66.36.36.36.95 0 1.31-.29.3-.51.51-.8.81-.37.36-.96.36-1.32 0-3.26-3.27-12.39-12.39-15.65-15.66-.37-.36-.37-.95 0-1.31.29-.3.51-.52.8-.81" fill="#000000"/><path d="M1368.77 8.3c-.29-.3-.51-.52-.8-.81-.37-.36-.96-.36-1.32 0-3.26 3.26-12.39 12.39-15.65 15.66-.37.36-.37.95 0 1.31.29.3.51.51.8.81.36.36.95.36 1.32 0 3.26-3.27 12.39-12.39 15.65-15.66.36-.36.36-.95 0-1.31" fill="#000000"/></g><g><path d="M1383.8 7.49c.36-.36.95-.36 1.32 0 3.26 3.26 12.39 12.39 15.65 15.66.36.36.36.95 0 1.31-.29.3-.51.51-.8.81-.37.36-.96.36-1.32 0-3.26-3.27-12.39-12.39-15.65-15.66-.37-.36-.37-.95 0-1.31.29-.3.51-.52.8-.81" fill="#000000"/><path d="M1400.77 8.3c-.29-.3-.51-.52-.8-.81-.37-.36-.96-.36-1.32 0-3.26 3.26-12.39 12.39-15.65 15.66-.37.36-.37.95 0 1.31.29.3.51.51.8.81.36.36.95.36 1.32 0 3.26-3.27 12.39-12.39 15.65-15.66.36-.36.36-.95 0-1.31" fill="#000000"/></g><g><path d="M1415.8 7.49c.36-.36.95-.36 1.32 0 3.26 3.26 12.39 12.39 15.65 15.66.36.36.36.95 0 1.31-.29.3-.51.51-.8.81-.37.36-.96.36-1.32 0-3.26-3.27-12.39-12.39-15.65-15.66-.37-.36-.37-.95 0-1.31.29-.3.51-.52.8-.81" fill="#000000"/><path d="M1432.77 8.3c-.29-.3-.51-.52-.8-.81-.37-.36-.96-.36-1.32 0-3.26 3.26-12.39 12.39-15.65 15.66-.37.36-.37.95 0 1.31.29.3.51.51.8.81.36.36.95.36 1.32 0 3.26-3.27 12.39-12.39 15.65-15.66.36-.36.36-.95 0-1.31" fill="#000000"/></g><g><path d="M1447.8 7.49c.36-.36.95-.36 1.32 0 3.26 3.26 12.39 12.39 15.65 15.66.36.36.36.95 0 1.31-.29.3-.51.51-.8.81-.37.36-.96.36-1.32 0-3.26-3.27-12.39-12.39-15.65-15.66-.37-.36-.37-.95 0-1.31.29-.3.51-.52.8-.81" fill="#000000"/><path d="M1464.77 8.3c-.29-.3-.51-.52-.8-.81-.37-.36-.96-.36-1.32 0-3.26 3.26-12.39 12.39-15.65 15.66-.37.36-.37.95 0 1.31.29.3.51.51.8.81.36.36.95.36 1.32 0 3.26-3.27 12.39-12.39 15.65-15.66.36-.36.36-.95 0-1.31" fill="#000000"/></g><g><path d="M1479.8 7.49c.36-.36.95-.36 1.32 0 3.26 3.26 12.39 12.39 15.65 15.66.36.36.36.95 0 1.31-.29.3-.51.51-.8.81-.37.36-.96.36-1.32 0-3.26-3.27-12.39-12.39-15.65-15.66-.37-.36-.37-.95 0-1.31.29-.3.51-.52.8-.81" fill="#000000"/><path d="M1496.77 8.3c-.29-.3-.51-.52-.8-.81-.37-.36-.96-.36-1.32 0-3.26 3.26-12.39 12.39-15.65 15.66-.37.36-.37.95 0 1.31.29.3.51.51.8.81.36.36.95.36 1.32 0 3.26-3.27 12.39-12.39 15.65-15.66.36-.36.36-.95 0-1.31" fill="#000000"/></g><g><path d="M1511.8 7.49c.36-.36.95-.36 1.32 0 3.26 3.26 12.39 12.39 15.65 15.66.36.36.36.95 0 1.31-.29.3-.51.51-.8.81-.37.36-.96.36-1.32 0-3.26-3.27-12.39-12.39-15.65-15.66-.37-.36-.37-.95 0-1.31.29-.3.51-.52.8-.81" fill="#000000"/><path d="M1528.77 8.3c-.29-.3-.51-.52-.8-.81-.37-.36-.96-.36-1.32 0-3.26 3.26-12.39 12.39-15.65 15.66-.37.36-.37.95 0 1.31.29.3.51.51.8.81.36.36.95.36 1.32 0 3.26-3.27 12.39-12.39 15.65-15.66.36-.36.36-.95 0-1.31" fill="#000000"/></g><g><path d="M1543.8 7.49c.36-.36.95-.36 1.32 0 3.26 3.26 12.39 12.39 15.65 15.66.36.36.36.95 0 1.31-.29.3-.51.51-.8.81-.37.36-.96.36-1.32 0-3.26-3.27-12.39-12.39-15.65-15.66-.37-.36-.37-.95 0-1.31.29-.3.51-.52.8-.81" fill="#000000"/><path d="M1560.77 8.3c-.29-.3-.51-.52-.8-.81-.37-.36-.96-.36-1.32 0-3.26 3.26-12.39 12.39-15.65 15.66-.37.36-.37.95 0 1.31.29.3.51.51.8.81.36.36.95.36 1.32 0 3.26-3.27 12.39-12.39 15.65-15.66.36-.36.36-.95 0-1.31" fill="#000000"/></g><g><path d="M1575.8 7.49c.36-.36.95-.36 1.32 0 3.26 3.26 12.39 12.39 15.65 15.66.36.36.36.95 0 1.31-.29.3-.51.51-.8.81-.37.36-.96.36-1.32 0-3.26-3.27-12.39-12.39-15.65-15.66-.37-.36-.37-.95 0-1.31.29-.3.51-.52.8-.81" fill="#000000"/><path d="M1592.77 8.3c-.29-.3-.51-.52-.8-.81-.37-.36-.96-.36-1.32 0-3.26 3.26-12.39 12.39-15.65 15.66-.37.36-.37.95 0 1.31.29.3.51.51.8.81.36.36.95.36 1.32 0 3.26-3.27 12.39-12.39 15.65-15.66.36-.36.36-.95 0-1.31" fill="#000000"/></g><g><path d="M1607.8 7.49c.36-.36.95-.36 1.32 0 3.26 3.26 12.39 12.39 15.65 15.66.36.36.36.95 0 1.31-.29.3-.51.51-.8.81-.37.36-.96.36-1.32 0-3.26-3.27-12.39-12.39-15.65-15.66-.37-.36-.37-.95 0-1.31.29-.3.51-.52.8-.81" fill="#000000"/><path d="M1624.77 8.3c-.29-.3-.51-.52-.8-.81-.37-.36-.96-.36-1.32 0-3.26 3.26-12.39 12.39-15.65 15.66-.37.36-.37.95 0 1.31.29.3.51.51.8.81.36.36.95.36 1.32 0 3.26-3.27 12.39-12.39 15.65-15.66.36-.36.36-.95 0-1.31" fill="#000000"/></g><g><path d="M1639.8 7.49c.36-.36.95-.36 1.32 0 3.26 3.26 12.39 12.39 15.65 15.66.36.36.36.95 0 1.31-.29.3-.51.51-.8.81-.37.36-.96.36-1.32 0-3.26-3.27-12.39-12.39-15.65-15.66-.37-.36-.37-.95 0-1.31.29-.3.51-.52.8-.81" fill="#000000"/><path d="M1656.77 8.3c-.29-.3-.51-.52-.8-.81-.37-.36-.96-.36-1.32 0-3.26 3.26-12.39 12.39-15.65 15.66-.37.36-.37.95 0 1.31.29.3.51.51.8.81.36.36.95.36 1.32 0 3.26-3.27 12.39-12.39 15.65-15.66.36-.36.36-.95 0-1.31" fill="#000000"/></g><g><path d="M1671.8 7.49c.36-.36.95-.36 1.32 0 3.26 3.26 12.39 12.39 15.65 15.66.36.36.36.95 0 1.31-.29.3-.51.51-.8.81-.37.36-.96.36-1.32 0-3.26-3.27-12.39-12.39-15.65-15.66-.37-.36-.37-.95 0-1.31.29-.3.51-.52.8-.81" fill="#000000"/><path d="M1688.77 8.3c-.29-.3-.51-.52-.8-.81-.37-.36-.96-.36-1.32 0-3.26 3.26-12.39 12.39-15.65 15.66-.37.36-.37.95 0 1.31.29.3.51.51.8.81.36.36.95.36 1.32 0 3.26-3.27 12.39-12.39 15.65-15.66.36-.36.36-.95 0-1.31" fill="#000000"/></g><g><path d="M1703.8 7.49c.36-.36.95-.36 1.32 0 3.26 3.26 12.39 12.39 15.65 15.66.36.36.36.95 0 1.31-.29.3-.51.51-.8.81-.37.36-.96.36-1.32 0-3.26-3.27-12.39-12.39-15.65-15.66-.37-.36-.37-.95 0-1.31.29-.3.51-.52.8-.81" fill="#000000"/><path d="M1720.77 8.3c-.29-.3-.51-.52-.8-.81-.37-.36-.96-.36-1.32 0-3.26 3.26-12.39 12.39-15.65 15.66-.37.36-.37.95 0 1.31.29.3.51.51.8.81.36.36.95.36 1.32 0 3.26-3.27 12.39-12.39 15.65-15.66.36-.36.36-.95 0-1.31" fill="#000000"/></g><g><path d="M1735.8 7.49c.36-.36.95-.36 1.32 0 3.26 3.26 12.39 12.39 15.65 15.66.36.36.36.95 0 1.31-.29.3-.51.51-.8.81-.37.36-.96.36-1.32 0-3.26-3.27-12.39-12.39-15.65-15.66-.37-.36-.37-.95 0-1.31.29-.3.51-.52.8-.81" fill="#000000"/><path d="M1752.77 8.3c-.29-.3-.51-.52-.8-.81-.37-.36-.96-.36-1.32 0-3.26 3.26-12.39 12.39-15.65 15.66-.37.36-.37.95 0 1.31.29.3.51.51.8.81.36.36.95.36 1.32 0 3.26-3.27 12.39-12.39 15.65-15.66.36-.36.36-.95 0-1.31" fill="#000000"/></g><g><path d="M1767.8 7.49c.36-.36.95-.36 1.32 0 3.26 3.26 12.39 12.39 15.65 15.66.36.36.36.95 0 1.31-.29.3-.51.51-.8.81-.37.36-.96.36-1.32 0-3.26-3.27-12.39-12.39-15.65-15.66-.37-.36-.37-.95 0-1.31.29-.3.51-.52.8-.81" fill="#000000"/><path d="M1784.77 8.3c-.29-.3-.51-.52-.8-.81-.37-.36-.96-.36-1.32 0-3.26 3.26-12.39 12.39-15.65 15.66-.37.36-.37.95 0 1.31.29.3.51.51.8.81.36.36.95.36 1.32 0 3.26-3.27 12.39-12.39 15.65-15.66.36-.36.36-.95 0-1.31" fill="#000000"/></g><g><path d="M1799.8 7.49c.36-.36.95-.36 1.32 0 3.26 3.26 12.39 12.39 15.65 15.66.36.36.36.95 0 1.31-.29.3-.51.51-.8.81-.37.36-.96.36-1.32 0-3.26-3.27-12.39-12.39-15.65-15.66-.37-.36-.37-.95 0-1.31.29-.3.51-.52.8-.81" fill="#000000"/><path d="M1816.77 8.3c-.29-.3-.51-.52-.8-.81-.37-.36-.96-.36-1.32 0-3.26 3.26-12.39 12.39-15.65 15.66-.37.36-.37.95 0 1.31.29.3.51.51.8.81.36.36.95.36 1.32 0 3.26-3.27 12.39-12.39 15.65-15.66.36-.36.36-.95 0-1.31" fill="#000000"/></g><g><path d="M1831.8 7.49c.36-.36.95-.36 1.32 0 3.26 3.26 12.39 12.39 15.65 15.66.36.36.36.95 0 1.31-.29.3-.51.51-.8.81-.37.36-.96.36-1.32 0-3.26-3.27-12.39-12.39-15.65-15.66-.37-.36-.37-.95 0-1.31.29-.3.51-.52.8-.81" fill="#000000"/><path d="M1848.77 8.3c-.29-.3-.51-.52-.8-.81-.37-.36-.96-.36-1.32 0-3.26 3.26-12.39 12.39-15.65 15.66-.37.36-.37.95 0 1.31.29.3.51.51.8.81.36.36.95.36 1.32 0 3.26-3.27 12.39-12.39 15.65-15.66.36-.36.36-.95 0-1.31" fill="#000000"/></g><g><path d="M1863.8 7.49c.36-.36.95-.36 1.32 0 3.26 3.26 12.39 12.39 15.65 15.66.36.36.36.95 0 1.31-.29.3-.51.51-.8.81-.37.36-.96.36-1.32 0-3.26-3.27-12.39-12.39-15.65-15.66-.37-.36-.37-.95 0-1.31.29-.3.51-.52.8-.81" fill="#000000"/><path d="M1880.77 8.3c-.29-.3-.51-.52-.8-.81-.37-.36-.96-.36-1.32 0-3.26 3.26-12.39 12.39-15.65 15.66-.37.36-.37.95 0 1.31.29.3.51.51.8.81.36.36.95.36 1.32 0 3.26-3.27 12.39-12.39 15.65-15.66.36-.36.36-.95 0-1.31" fill="#000000"/></g><g><path d="M1895.8 7.49c.36-.36.95-.36 1.32 0 3.26 3.26 12.39 12.39 15.65 15.66.36.36.36.95 0 1.31-.29.3-.51.51-.8.81-.37.36-.96.36-1.32 0-3.26-3.27-12.39-12.39-15.65-15.66-.37-.36-.37-.95 0-1.31.29-.3.51-.52.8-.81" fill="#000000"/><path d="M1912.77 8.3c-.29-.3-.51-.52-.8-.81-.37-.36-.96-.36-1.32 0-3.26 3.26-12.39 12.39-15.65 15.66-.37.36-.37.95 0 1.31.29.3.51.51.8.81.36.36.95.36 1.32 0 3.26-3.27 12.39-12.39 15.65-15.66.36-.36.36-.95 0-1.31" fill="#000000"/></g><g><path d="M1927.8 7.49c.36-.36.95-.36 1.32 0 3.26 3.26 12.39 12.39 15.65 15.66.36.36.36.95 0 1.31-.29.3-.51.51-.8.81-.37.36-.96.36-1.32 0-3.26-3.27-12.39-12.39-15.65-15.66-.37-.36-.37-.95 0-1.31.29-.3.51-.52.8-.81" fill="#000000"/><path d="M1944.77 8.3c-.29-.3-.51-.52-.8-.81-.37-.36-.96-.36-1.32 0-3.26 3.26-12.39 12.39-15.65 15.66-.37.36-.37.95 0 1.31.29.3.51.51.8.81.36.36.95.36 1.32 0 3.26-3.27 12.39-12.39 15.65-15.66.36-.36.36-.95 0-1.31" fill="#000000"/></g></svg>